<svg width="109" height="69" viewBox="0 0 109 69" fill="none" xmlns="http://www.w3.org/2000/svg">
<path d="M38.75 58L30.25 43.15C29.6833 43.7833 29.1 44.4167 28.5 45.05C27.9333 45.6833 27.3333 46.3333 26.7 47V58H20.7V24H26.7V40.15C29.2333 37.25 31.4 34.5 33.2 31.9C35 29.2667 36.55 26.6333 37.85 24H44.4C42.9667 26.8667 41.4333 29.5833 39.8 32.15C38.2 34.6833 36.5 37.0333 34.7 39.2L46 58H38.75Z" fill="url(#paint0_linear_228_675)"/>
<path d="M56.8905 58.288C55.1839 58.288 53.6479 57.9147 52.2825 57.168C50.9172 56.4 49.8399 55.3227 49.0505 53.936C48.2825 52.5493 47.8985 50.9493 47.8985 49.136C47.8985 47.3227 48.2932 45.7227 49.0825 44.336C49.8932 42.9493 50.9919 41.8827 52.3785 41.136C53.7652 40.368 55.3119 39.984 57.0185 39.984C58.7252 39.984 60.2719 40.368 61.6585 41.136C63.0452 41.8827 64.1332 42.9493 64.9225 44.336C65.7332 45.7227 66.1385 47.3227 66.1385 49.136C66.1385 50.9493 65.7225 52.5493 64.8905 53.936C64.0799 55.3227 62.9705 56.4 61.5625 57.168C60.1759 57.9147 58.6185 58.288 56.8905 58.288ZM56.8905 54.384C57.7012 54.384 58.4585 54.192 59.1625 53.808C59.8879 53.4027 60.4639 52.8053 60.8905 52.016C61.3172 51.2267 61.5305 50.2667 61.5305 49.136C61.5305 47.4507 61.0825 46.16 60.1865 45.264C59.3119 44.3467 58.2345 43.888 56.9545 43.888C55.6745 43.888 54.5972 44.3467 53.7225 45.264C52.8692 46.16 52.4425 47.4507 52.4425 49.136C52.4425 50.8213 52.8585 52.1227 53.6905 53.04C54.5439 53.936 55.6105 54.384 56.8905 54.384ZM76.8168 53.872L81.2968 40.272H86.0648L79.5048 58H74.0648L67.5368 40.272H72.3368L76.8168 53.872ZM87.429 49.072C87.429 47.28 87.781 45.6907 88.485 44.304C89.2104 42.9173 90.181 41.8507 91.397 41.104C92.6344 40.3573 94.0104 39.984 95.525 39.984C96.8477 39.984 97.9997 40.2507 98.981 40.784C99.9837 41.3173 100.784 41.9893 101.381 42.8V40.272H105.893V58H101.381V55.408C100.805 56.24 100.005 56.9333 98.981 57.488C97.9784 58.0213 96.8157 58.288 95.493 58.288C93.9997 58.288 92.6344 57.904 91.397 57.136C90.181 56.368 89.2104 55.2907 88.485 53.904C87.781 52.496 87.429 50.8853 87.429 49.072ZM101.381 49.136C101.381 48.048 101.168 47.12 100.741 46.352C100.314 45.5627 99.7384 44.9653 99.013 44.56C98.2877 44.1333 97.509 43.92 96.677 43.92C95.845 43.92 95.077 44.1227 94.373 44.528C93.669 44.9333 93.093 45.5307 92.645 46.32C92.2184 47.088 92.005 48.0053 92.005 49.072C92.005 50.1387 92.2184 51.0773 92.645 51.888C93.093 52.6773 93.669 53.2853 94.373 53.712C95.0984 54.1387 95.8664 54.352 96.677 54.352C97.509 54.352 98.2877 54.1493 99.013 53.744C99.7384 53.3173 100.314 52.72 100.741 51.952C101.168 51.1627 101.381 50.224 101.381 49.136Z" fill="white"/>
<g clip-path="url(#clip0_228_675)">
<path d="M33.1811 10.252L16.1966 9.52809C16.0328 9.52122 15.8699 9.55471 15.7221 9.62562C15.5743 9.69652 15.4462 9.80267 15.3491 9.93472L5.28589 23.6363C5.17853 23.7824 5.1129 23.9549 5.09602 24.1354C5.07915 24.3159 5.11166 24.4976 5.19009 24.6611C5.26851 24.8245 5.3899 24.9636 5.54127 25.0634C5.69263 25.1631 5.86827 25.2199 6.04941 25.2276L9.97876 25.3956L12.597 30.8525C12.8085 31.2958 13.1767 31.6451 13.6304 31.8332C15.8957 32.7691 20.5266 33.9398 26.1041 31.2637C27.9608 30.3917 29.6355 29.176 31.04 27.6809L32.8114 31.3729C32.9261 31.612 33.1311 31.7958 33.3814 31.8837C33.6316 31.9717 33.9065 31.9567 34.1456 31.8419C34.3847 31.7272 34.5684 31.5222 34.6564 31.272C34.7444 31.0218 34.7293 30.7469 34.6146 30.5078L32.4252 25.9446C33.2752 24.7018 33.9258 23.3338 34.3535 21.8901C34.4908 21.4185 34.4486 20.9128 34.2352 20.4704L31.617 15.0135L33.9447 11.8433C34.052 11.6972 34.1177 11.5247 34.1345 11.3442C34.1514 11.1637 34.1189 10.982 34.0405 10.8185C33.962 10.6551 33.8407 10.516 33.6893 10.4162C33.5379 10.3164 33.3623 10.2597 33.1811 10.252ZM25.2389 29.4605C20.3624 31.8002 16.3511 30.794 14.4002 29.9873L12.2432 25.4917L23.034 25.9515C23.1978 25.9584 23.3607 25.9249 23.5085 25.854C23.6563 25.7831 23.7844 25.6769 23.8815 25.5449L27.5917 20.4941L30.0975 25.7166C28.9954 27.0606 27.4388 28.405 25.2389 29.4605ZM32.4299 21.331C32.1772 22.1901 31.8309 23.0187 31.3972 23.8022L28.9331 18.6665L30.275 16.84L32.4299 21.331ZM27.6177 17.0807L27.5858 17.078L19.6595 16.7397C19.3974 16.7332 19.1431 16.8299 18.9516 17.0091C18.7601 17.1882 18.6466 17.4354 18.6355 17.6974C18.6245 17.9595 18.7169 18.2153 18.8927 18.4099C19.0685 18.6045 19.3138 18.7222 19.5755 18.7377L26.1917 19.021L22.5855 23.9304L8.00728 23.3094L16.645 11.5492L31.2233 12.1702L27.6177 17.0807Z" fill="white"/>
</g>
<defs>
<linearGradient id="paint0_linear_228_675" x1="16" y1="39" x2="109" y2="39" gradientUnits="userSpaceOnUse">
<stop stop-color="#FF00CC"/>
<stop offset="1" stop-color="#333399"/>
</linearGradient>
<clipPath id="clip0_228_675">
<rect width="32" height="32" fill="white" transform="translate(0 13.8438) rotate(-25.6319)"/>
</clipPath>
</defs>
</svg>
