<svg width="93" height="60" viewBox="0 0 93 60" fill="none" xmlns="http://www.w3.org/2000/svg">
<path d="M22.75 49L14.25 34.15C13.6833 34.7833 13.1 35.4167 12.5 36.05C11.9333 36.6833 11.3333 37.3333 10.7 38V49H4.7V15H10.7V31.15C13.2333 28.25 15.4 25.5 17.2 22.9C19 20.2667 20.55 17.6333 21.85 15H28.4C26.9667 17.8667 25.4333 20.5833 23.8 23.15C22.2 25.6833 20.5 28.0333 18.7 30.2L30 49H22.75Z" fill="url(#paint0_linear_228_675)"/>
<path d="M40.8905 49.288C39.1839 49.288 37.6479 48.9147 36.2825 48.168C34.9172 47.4 33.8399 46.3227 33.0505 44.936C32.2825 43.5493 31.8985 41.9493 31.8985 40.136C31.8985 38.3227 32.2932 36.7227 33.0825 35.336C33.8932 33.9493 34.9919 32.8827 36.3785 32.136C37.7652 31.368 39.3119 30.984 41.0185 30.984C42.7252 30.984 44.2719 31.368 45.6585 32.136C47.0452 32.8827 48.1332 33.9493 48.9225 35.336C49.7332 36.7227 50.1385 38.3227 50.1385 40.136C50.1385 41.9493 49.7225 43.5493 48.8905 44.936C48.0799 46.3227 46.9705 47.4 45.5625 48.168C44.1759 48.9147 42.6185 49.288 40.8905 49.288ZM40.8905 45.384C41.7012 45.384 42.4585 45.192 43.1625 44.808C43.8879 44.4027 44.4639 43.8053 44.8905 43.016C45.3172 42.2267 45.5305 41.2667 45.5305 40.136C45.5305 38.4507 45.0825 37.16 44.1865 36.264C43.3119 35.3467 42.2345 34.888 40.9545 34.888C39.6745 34.888 38.5972 35.3467 37.7225 36.264C36.8692 37.16 36.4425 38.4507 36.4425 40.136C36.4425 41.8213 36.8585 43.1227 37.6905 44.04C38.5439 44.936 39.6105 45.384 40.8905 45.384ZM60.8168 44.872L65.2968 31.272H70.0648L63.5048 49H58.0648L51.5368 31.272H56.3368L60.8168 44.872ZM71.429 40.072C71.429 38.28 71.781 36.6907 72.485 35.304C73.2104 33.9173 74.181 32.8507 75.397 32.104C76.6344 31.3573 78.0104 30.984 79.525 30.984C80.8477 30.984 81.9997 31.2507 82.981 31.784C83.9837 32.3173 84.7837 32.9893 85.381 33.8V31.272H89.893V49H85.381V46.408C84.805 47.24 84.005 47.9333 82.981 48.488C81.9784 49.0213 80.8157 49.288 79.493 49.288C77.9997 49.288 76.6344 48.904 75.397 48.136C74.181 47.368 73.2104 46.2907 72.485 44.904C71.781 43.496 71.429 41.8853 71.429 40.072ZM85.381 40.136C85.381 39.048 85.1677 38.12 84.741 37.352C84.3144 36.5627 83.7384 35.9653 83.013 35.56C82.2877 35.1333 81.509 34.92 80.677 34.92C79.845 34.92 79.077 35.1227 78.373 35.528C77.669 35.9333 77.093 36.5307 76.645 37.32C76.2184 38.088 76.005 39.0053 76.005 40.072C76.005 41.1387 76.2184 42.0773 76.645 42.888C77.093 43.6773 77.669 44.2853 78.373 44.712C79.0984 45.1387 79.8664 45.352 80.677 45.352C81.509 45.352 82.2877 45.1493 83.013 44.744C83.7384 44.3173 84.3144 43.72 84.741 42.952C85.1677 42.1627 85.381 41.224 85.381 40.136Z" fill="white"/>
<defs>
<linearGradient id="paint0_linear_228_675" x1="0" y1="30" x2="93" y2="30" gradientUnits="userSpaceOnUse">
<stop stop-color="#FF00CC"/>
<stop offset="1" stop-color="#333399"/>
</linearGradient>
</defs>
</svg>
